<svg width="24" height="24" viewBox="0 0 24 24" fill="none" xmlns="http://www.w3.org/2000/svg">
<path d="M8.82671 5.33337H7.56004C6.10004 5.33337 5.33337 6.10004 5.33337 7.55337V8.82004C5.33337 10.2734 6.10004 11.04 7.55337 11.04H8.82004C10.2734 11.04 11.04 10.2734 11.04 8.82004V7.55337C11.0467 6.10004 10.28 5.33337 8.82671 5.33337Z" fill="#292D32"/>
<path d="M16.4466 5.33337H15.18C13.7266 5.33337 12.96 6.10004 12.96 7.55337V8.82004C12.96 10.2734 13.7266 11.04 15.18 11.04H16.4466C17.9 11.04 18.6666 10.2734 18.6666 8.82004V7.55337C18.6666 6.10004 17.9 5.33337 16.4466 5.33337Z" fill="#292D32"/>
<path d="M16.4466 12.9534H15.18C13.7266 12.9534 12.96 13.72 12.96 15.1734V16.44C12.96 17.8934 13.7266 18.66 15.18 18.66H16.4466C17.9 18.66 18.6666 17.8934 18.6666 16.44V15.1734C18.6666 13.72 17.9 12.9534 16.4466 12.9534Z" fill="#292D32"/>
<path d="M8.82671 12.9534H7.56004C6.10004 12.9534 5.33337 13.72 5.33337 15.1734V16.44C5.33337 17.9 6.10004 18.6667 7.55337 18.6667H8.82004C10.2734 18.6667 11.04 17.9 11.04 16.4467V15.18C11.0467 13.72 10.28 12.9534 8.82671 12.9534Z" fill="#292D32"/>
</svg>
