<svg width="24" height="24" viewBox="0 0 24 24" fill="none" xmlns="http://www.w3.org/2000/svg">
<path d="M12.89 5.88H5.11C3.4 5.88 2 7.28 2 8.99V20.35C2 21.8 3.04 22.42 4.31 21.71L8.24 19.52C8.66 19.29 9.34 19.29 9.75 19.52L13.68 21.71C14.96 22.41 16 21.8 16 20.35V8.99C16 7.28 14.6 5.88 12.89 5.88Z" fill="#0B090A"/>
<path d="M22.0001 5.11V16.47C22.0001 17.92 20.9601 18.53 19.6901 17.83L17.7601 16.75C17.6001 16.66 17.5001 16.49 17.5001 16.31V8.99C17.5001 6.45 15.4301 4.38 12.8901 4.38H8.82008C8.45008 4.38 8.19008 3.99 8.36008 3.67C8.88008 2.68 9.92008 2 11.1101 2H18.8901C20.6001 2 22.0001 3.4 22.0001 5.11Z" fill="#0B090A"/>
</svg>
