<svg width="27" height="27" viewBox="0 0 27 27" fill="none" xmlns="http://www.w3.org/2000/svg">
<path d="M17.1666 18.3584H13.8333L10.1249 20.825C9.57495 21.1917 8.83329 20.8001 8.83329 20.1334V18.3584C6.33329 18.3584 4.66663 16.6917 4.66663 14.1917V9.19169C4.66663 6.69169 6.33329 5.02502 8.83329 5.02502H17.1666C19.6666 5.02502 21.3333 6.69169 21.3333 9.19169V14.1917C21.3333 16.6917 19.6666 18.3584 17.1666 18.3584Z" stroke="#292D32" stroke-width="1.5" stroke-miterlimit="10" stroke-linecap="round" stroke-linejoin="round"/>
<path d="M13 12.4667V12.2917C13 11.725 13.35 11.425 13.7 11.1834C14.0417 10.95 14.3833 10.65 14.3833 10.1C14.3833 9.33337 13.7667 8.71667 13 8.71667C12.2333 8.71667 11.6167 9.33337 11.6167 10.1" stroke="#292D32" stroke-width="1.5" stroke-linecap="round" stroke-linejoin="round"/>
<path d="M12.9963 14.4583H13.0038" stroke="#292D32" stroke-width="1.5" stroke-linecap="round" stroke-linejoin="round"/>
</svg>
