<svg width="24" height="24" viewBox="0 0 24 24" fill="none" xmlns="http://www.w3.org/2000/svg">
<path d="M15.75 16.8224H12.75L9.41249 19.0424C8.91749 19.3724 8.25 19.0199 8.25 18.4199V16.8224C6 16.8224 4.5 15.3224 4.5 13.0724V8.57239C4.5 6.32239 6 4.82239 8.25 4.82239H15.75C18 4.82239 19.5 6.32239 19.5 8.57239V13.0724C19.5 15.3224 18 16.8224 15.75 16.8224Z" stroke="#292D32" stroke-width="1.5" stroke-miterlimit="10" stroke-linecap="round" stroke-linejoin="round"/>
<path d="M12 11.52V11.3625C12 10.8525 12.315 10.5825 12.63 10.365C12.9375 10.155 13.245 9.88505 13.245 9.39005C13.245 8.70005 12.69 8.14502 12 8.14502C11.31 8.14502 10.755 8.70005 10.755 9.39005" stroke="#292D32" stroke-width="1.5" stroke-linecap="round" stroke-linejoin="round"/>
<path d="M11.9966 13.3125H12.0034" stroke="#292D32" stroke-width="1.5" stroke-linecap="round" stroke-linejoin="round"/>
</svg>
