<svg width="512" height="512" viewBox="0 0 512 512" fill="none" xmlns="http://www.w3.org/2000/svg">
<rect width="512" height="512" rx="60" fill="white"/>
<path d="M76.944 162.152C73.104 162.152 69.9467 161.043 67.472 158.824C65.0827 156.52 63.888 153.704 63.888 150.376C63.888 146.963 65.0827 144.147 67.472 141.928C69.9467 139.624 73.104 138.472 76.944 138.472C80.6987 138.472 83.7707 139.624 86.16 141.928C88.6347 144.147 89.872 146.963 89.872 150.376C89.872 153.704 88.6347 156.52 86.16 158.824C83.7707 161.043 80.6987 162.152 76.944 162.152ZM87.824 169.576V241H65.936V169.576H87.824ZM442.194 162.152C438.354 162.152 435.197 161.043 432.722 158.824C430.333 156.52 429.138 153.704 429.138 150.376C429.138 146.963 430.333 144.147 432.722 141.928C435.197 139.624 438.354 138.472 442.194 138.472C445.949 138.472 449.021 139.624 451.41 141.928C453.885 144.147 455.122 146.963 455.122 150.376C455.122 153.704 453.885 156.52 451.41 158.824C449.021 161.043 445.949 162.152 442.194 162.152ZM453.074 169.576V241H431.186V169.576H453.074Z" fill="#E5383B"/>
<path d="M140.934 169.32C146.481 169.32 151.43 170.472 155.782 172.776C160.219 175.08 163.675 178.493 166.15 183.016C168.625 187.539 169.862 193 169.862 199.4V241H155.398V201.576C155.398 195.261 153.819 190.44 150.662 187.112C147.505 183.699 143.195 181.992 137.734 181.992C132.273 181.992 127.921 183.699 124.678 187.112C121.521 190.44 119.942 195.261 119.942 201.576V241H105.35V170.472H119.942V178.536C122.331 175.635 125.361 173.373 129.03 171.752C132.785 170.131 136.753 169.32 140.934 169.32ZM183.611 205.416C183.611 198.333 185.062 192.061 187.963 186.6C190.95 181.139 194.96 176.915 199.995 173.928C205.115 170.856 210.747 169.32 216.891 169.32C222.438 169.32 227.259 170.429 231.355 172.648C235.536 174.781 238.864 177.469 241.339 180.712V170.472H256.059V241H241.339V230.504C238.864 233.832 235.494 236.605 231.227 238.824C226.96 241.043 222.096 242.152 216.635 242.152C210.576 242.152 205.03 240.616 199.995 237.544C194.96 234.387 190.95 230.035 187.963 224.488C185.062 218.856 183.611 212.499 183.611 205.416ZM241.339 205.672C241.339 200.808 240.315 196.584 238.267 193C236.304 189.416 233.702 186.685 230.459 184.808C227.216 182.931 223.718 181.992 219.963 181.992C216.208 181.992 212.71 182.931 209.467 184.808C206.224 186.6 203.579 189.288 201.531 192.872C199.568 196.371 198.587 200.552 198.587 205.416C198.587 210.28 199.568 214.547 201.531 218.216C203.579 221.885 206.224 224.701 209.467 226.664C212.795 228.541 216.294 229.48 219.963 229.48C223.718 229.48 227.216 228.541 230.459 226.664C233.702 224.787 236.304 222.056 238.267 218.472C240.315 214.803 241.339 210.536 241.339 205.672ZM303.129 205.8L335.641 241H315.929L289.817 210.664V241H275.225V146.28H289.817V201.32L315.417 170.472H335.641L303.129 205.8ZM341.236 205.416C341.236 198.333 342.687 192.061 345.588 186.6C348.575 181.139 352.585 176.915 357.62 173.928C362.74 170.856 368.415 169.32 374.644 169.32C379.252 169.32 383.775 170.344 388.212 172.392C392.735 174.355 396.319 177 398.964 180.328V146.28H413.684V241H398.964V230.376C396.575 233.789 393.247 236.605 388.98 238.824C384.799 241.043 379.977 242.152 374.516 242.152C368.372 242.152 362.74 240.616 357.62 237.544C352.585 234.387 348.575 230.035 345.588 224.488C342.687 218.856 341.236 212.499 341.236 205.416ZM398.964 205.672C398.964 200.808 397.94 196.584 395.892 193C393.929 189.416 391.327 186.685 388.084 184.808C384.841 182.931 381.343 181.992 377.588 181.992C373.833 181.992 370.335 182.931 367.092 184.808C363.849 186.6 361.204 189.288 359.156 192.872C357.193 196.371 356.212 200.552 356.212 205.416C356.212 210.28 357.193 214.547 359.156 218.216C361.204 221.885 363.849 224.701 367.092 226.664C370.42 228.541 373.919 229.48 377.588 229.48C381.343 229.48 384.841 228.541 388.084 226.664C391.327 224.787 393.929 222.056 395.892 218.472C397.94 214.803 398.964 210.536 398.964 205.672Z" fill="black"/>
<mask id="path-3-inside-1_17_18" fill="white">
<path d="M452 283.5C452 317.315 431.666 349.745 395.472 373.656C359.277 397.567 310.187 411 259 411C207.813 411 158.723 397.567 122.528 373.656C86.3339 349.745 66 317.315 66 283.5L259 283.5H452Z"/>
</mask>
<path d="M452 283.5C452 317.315 431.666 349.745 395.472 373.656C359.277 397.567 310.187 411 259 411C207.813 411 158.723 397.567 122.528 373.656C86.3339 349.745 66 317.315 66 283.5L259 283.5H452Z" stroke="#E5383B" stroke-width="40" mask="url(#path-3-inside-1_17_18)"/>
<rect width="460" height="60" transform="translate(26 245)" fill="white"/>
<path d="M36.704 263.484V283H34.156V263.484H36.704ZM48.5226 267.376C50.3893 267.376 51.9013 267.945 53.0586 269.084C54.216 270.204 54.7946 271.828 54.7946 273.956V283H52.2746V274.32C52.2746 272.789 51.892 271.623 51.1266 270.82C50.3613 269.999 49.316 269.588 47.9906 269.588C46.6466 269.588 45.5733 270.008 44.7706 270.848C43.9866 271.688 43.5946 272.911 43.5946 274.516V283H41.0466V267.656H43.5946V269.84C44.0986 269.056 44.78 268.449 45.6386 268.02C46.516 267.591 47.4773 267.376 48.5226 267.376ZM65.2008 269.756H61.9808V283H59.4328V269.756H57.4448V267.656H59.4328V266.564C59.4328 264.847 59.8714 263.596 60.7488 262.812C61.6448 262.009 63.0728 261.608 65.0328 261.608V263.736C63.9128 263.736 63.1194 263.96 62.6528 264.408C62.2048 264.837 61.9808 265.556 61.9808 266.564V267.656H65.2008V269.756ZM74.8636 283.252C73.4263 283.252 72.1196 282.925 70.9436 282.272C69.7863 281.619 68.8716 280.695 68.1996 279.5C67.5463 278.287 67.2196 276.887 67.2196 275.3C67.2196 273.732 67.5556 272.351 68.2276 271.156C68.9183 269.943 69.8516 269.019 71.0276 268.384C72.2036 267.731 73.5196 267.404 74.9756 267.404C76.4316 267.404 77.7476 267.731 78.9236 268.384C80.0996 269.019 81.0236 269.933 81.6956 271.128C82.3863 272.323 82.7316 273.713 82.7316 275.3C82.7316 276.887 82.377 278.287 81.6676 279.5C80.977 280.695 80.0343 281.619 78.8396 282.272C77.645 282.925 76.3196 283.252 74.8636 283.252ZM74.8636 281.012C75.7783 281.012 76.637 280.797 77.4396 280.368C78.2423 279.939 78.8863 279.295 79.3716 278.436C79.8756 277.577 80.1276 276.532 80.1276 275.3C80.1276 274.068 79.885 273.023 79.3996 272.164C78.9143 271.305 78.2796 270.671 77.4956 270.26C76.7116 269.831 75.8623 269.616 74.9476 269.616C74.0143 269.616 73.1556 269.831 72.3716 270.26C71.6063 270.671 70.9903 271.305 70.5236 272.164C70.057 273.023 69.8236 274.068 69.8236 275.3C69.8236 276.551 70.0476 277.605 70.4956 278.464C70.9623 279.323 71.5783 279.967 72.3436 280.396C73.109 280.807 73.949 281.012 74.8636 281.012ZM88.6298 270.148C89.0778 269.271 89.7124 268.589 90.5338 268.104C91.3738 267.619 92.3911 267.376 93.5858 267.376V270.008H92.9138C90.0578 270.008 88.6298 271.557 88.6298 274.656V283H86.0818V267.656H88.6298V270.148ZM114.979 267.376C116.174 267.376 117.238 267.628 118.171 268.132C119.104 268.617 119.842 269.355 120.383 270.344C120.924 271.333 121.195 272.537 121.195 273.956V283H118.675V274.32C118.675 272.789 118.292 271.623 117.527 270.82C116.78 269.999 115.763 269.588 114.475 269.588C113.15 269.588 112.095 270.017 111.311 270.876C110.527 271.716 110.135 272.939 110.135 274.544V283H107.615V274.32C107.615 272.789 107.232 271.623 106.467 270.82C105.72 269.999 104.703 269.588 103.415 269.588C102.09 269.588 101.035 270.017 100.251 270.876C99.4671 271.716 99.0751 272.939 99.0751 274.544V283H96.5271V267.656H99.0751V269.868C99.5791 269.065 100.251 268.449 101.091 268.02C101.95 267.591 102.892 267.376 103.919 267.376C105.207 267.376 106.346 267.665 107.335 268.244C108.324 268.823 109.062 269.672 109.547 270.792C109.976 269.709 110.686 268.869 111.675 268.272C112.664 267.675 113.766 267.376 114.979 267.376ZM124.423 275.272C124.423 273.704 124.74 272.332 125.375 271.156C126.009 269.961 126.877 269.037 127.979 268.384C129.099 267.731 130.34 267.404 131.703 267.404C133.047 267.404 134.213 267.693 135.203 268.272C136.192 268.851 136.929 269.579 137.415 270.456V267.656H139.991V283H137.415V280.144C136.911 281.04 136.155 281.787 135.147 282.384C134.157 282.963 133 283.252 131.675 283.252C130.312 283.252 129.08 282.916 127.979 282.244C126.877 281.572 126.009 280.629 125.375 279.416C124.74 278.203 124.423 276.821 124.423 275.272ZM137.415 275.3C137.415 274.143 137.181 273.135 136.715 272.276C136.248 271.417 135.613 270.764 134.811 270.316C134.027 269.849 133.159 269.616 132.207 269.616C131.255 269.616 130.387 269.84 129.603 270.288C128.819 270.736 128.193 271.389 127.727 272.248C127.26 273.107 127.027 274.115 127.027 275.272C127.027 276.448 127.26 277.475 127.727 278.352C128.193 279.211 128.819 279.873 129.603 280.34C130.387 280.788 131.255 281.012 132.207 281.012C133.159 281.012 134.027 280.788 134.811 280.34C135.613 279.873 136.248 279.211 136.715 278.352C137.181 277.475 137.415 276.457 137.415 275.3ZM149.729 283.252C148.553 283.252 147.498 283.056 146.565 282.664C145.631 282.253 144.894 281.693 144.353 280.984C143.811 280.256 143.513 279.425 143.457 278.492H146.089C146.163 279.257 146.518 279.883 147.153 280.368C147.806 280.853 148.655 281.096 149.701 281.096C150.671 281.096 151.437 280.881 151.997 280.452C152.557 280.023 152.837 279.481 152.837 278.828C152.837 278.156 152.538 277.661 151.941 277.344C151.343 277.008 150.419 276.681 149.169 276.364C148.03 276.065 147.097 275.767 146.369 275.468C145.659 275.151 145.043 274.693 144.521 274.096C144.017 273.48 143.765 272.677 143.765 271.688C143.765 270.904 143.998 270.185 144.465 269.532C144.931 268.879 145.594 268.365 146.453 267.992C147.311 267.6 148.291 267.404 149.393 267.404C151.091 267.404 152.463 267.833 153.509 268.692C154.554 269.551 155.114 270.727 155.189 272.22H152.641C152.585 271.417 152.258 270.773 151.661 270.288C151.082 269.803 150.298 269.56 149.309 269.56C148.394 269.56 147.666 269.756 147.125 270.148C146.583 270.54 146.313 271.053 146.313 271.688C146.313 272.192 146.471 272.612 146.789 272.948C147.125 273.265 147.535 273.527 148.021 273.732C148.525 273.919 149.215 274.133 150.093 274.376C151.194 274.675 152.09 274.973 152.781 275.272C153.471 275.552 154.059 275.981 154.545 276.56C155.049 277.139 155.31 277.895 155.329 278.828C155.329 279.668 155.095 280.424 154.629 281.096C154.162 281.768 153.499 282.3 152.641 282.692C151.801 283.065 150.83 283.252 149.729 283.252ZM160.242 265.164C159.756 265.164 159.346 264.996 159.01 264.66C158.674 264.324 158.506 263.913 158.506 263.428C158.506 262.943 158.674 262.532 159.01 262.196C159.346 261.86 159.756 261.692 160.242 261.692C160.708 261.692 161.1 261.86 161.418 262.196C161.754 262.532 161.922 262.943 161.922 263.428C161.922 263.913 161.754 264.324 161.418 264.66C161.1 264.996 160.708 265.164 160.242 265.164ZM161.474 267.656V283H158.926V267.656H161.474ZM184.817 278.66H176.305L174.737 283H172.049L179.105 263.596H182.045L189.073 283H186.385L184.817 278.66ZM184.089 276.588L180.561 266.732L177.033 276.588H184.089ZM200.716 283L194.696 276.224V283H192.148V262.28H194.696V274.46L200.604 267.656H204.16L196.936 275.3L204.188 283H200.716ZM211.99 283.252C210.814 283.252 209.76 283.056 208.826 282.664C207.893 282.253 207.156 281.693 206.614 280.984C206.073 280.256 205.774 279.425 205.718 278.492H208.35C208.425 279.257 208.78 279.883 209.414 280.368C210.068 280.853 210.917 281.096 211.962 281.096C212.933 281.096 213.698 280.881 214.258 280.452C214.818 280.023 215.098 279.481 215.098 278.828C215.098 278.156 214.8 277.661 214.202 277.344C213.605 277.008 212.681 276.681 211.43 276.364C210.292 276.065 209.358 275.767 208.63 275.468C207.921 275.151 207.305 274.693 206.782 274.096C206.278 273.48 206.026 272.677 206.026 271.688C206.026 270.904 206.26 270.185 206.726 269.532C207.193 268.879 207.856 268.365 208.714 267.992C209.573 267.6 210.553 267.404 211.654 267.404C213.353 267.404 214.725 267.833 215.77 268.692C216.816 269.551 217.376 270.727 217.45 272.22H214.902C214.846 271.417 214.52 270.773 213.922 270.288C213.344 269.803 212.56 269.56 211.57 269.56C210.656 269.56 209.928 269.756 209.386 270.148C208.845 270.54 208.574 271.053 208.574 271.688C208.574 272.192 208.733 272.612 209.05 272.948C209.386 273.265 209.797 273.527 210.282 273.732C210.786 273.919 211.477 274.133 212.354 274.376C213.456 274.675 214.352 274.973 215.042 275.272C215.733 275.552 216.321 275.981 216.806 276.56C217.31 277.139 217.572 277.895 217.59 278.828C217.59 279.668 217.357 280.424 216.89 281.096C216.424 281.768 215.761 282.3 214.902 282.692C214.062 283.065 213.092 283.252 211.99 283.252ZM235.187 274.74C235.187 275.225 235.159 275.739 235.103 276.28H222.839C222.933 277.792 223.446 278.977 224.379 279.836C225.331 280.676 226.479 281.096 227.823 281.096C228.925 281.096 229.839 280.844 230.567 280.34C231.314 279.817 231.837 279.127 232.135 278.268H234.879C234.469 279.743 233.647 280.947 232.415 281.88C231.183 282.795 229.653 283.252 227.823 283.252C226.367 283.252 225.061 282.925 223.903 282.272C222.765 281.619 221.869 280.695 221.215 279.5C220.562 278.287 220.235 276.887 220.235 275.3C220.235 273.713 220.553 272.323 221.187 271.128C221.822 269.933 222.709 269.019 223.847 268.384C225.005 267.731 226.33 267.404 227.823 267.404C229.279 267.404 230.567 267.721 231.687 268.356C232.807 268.991 233.666 269.868 234.263 270.988C234.879 272.089 235.187 273.34 235.187 274.74ZM232.555 274.208C232.555 273.237 232.341 272.407 231.911 271.716C231.482 271.007 230.894 270.475 230.147 270.12C229.419 269.747 228.607 269.56 227.711 269.56C226.423 269.56 225.322 269.971 224.407 270.792C223.511 271.613 222.998 272.752 222.867 274.208H232.555ZM243.983 283.252C242.807 283.252 241.752 283.056 240.819 282.664C239.885 282.253 239.148 281.693 238.607 280.984C238.065 280.256 237.767 279.425 237.711 278.492H240.343C240.417 279.257 240.772 279.883 241.407 280.368C242.06 280.853 242.909 281.096 243.955 281.096C244.925 281.096 245.691 280.881 246.251 280.452C246.811 280.023 247.091 279.481 247.091 278.828C247.091 278.156 246.792 277.661 246.195 277.344C245.597 277.008 244.673 276.681 243.423 276.364C242.284 276.065 241.351 275.767 240.623 275.468C239.913 275.151 239.297 274.693 238.775 274.096C238.271 273.48 238.019 272.677 238.019 271.688C238.019 270.904 238.252 270.185 238.719 269.532C239.185 268.879 239.848 268.365 240.707 267.992C241.565 267.6 242.545 267.404 243.647 267.404C245.345 267.404 246.717 267.833 247.763 268.692C248.808 269.551 249.368 270.727 249.443 272.22H246.895C246.839 271.417 246.512 270.773 245.915 270.288C245.336 269.803 244.552 269.56 243.563 269.56C242.648 269.56 241.92 269.756 241.379 270.148C240.837 270.54 240.567 271.053 240.567 271.688C240.567 272.192 240.725 272.612 241.043 272.948C241.379 273.265 241.789 273.527 242.275 273.732C242.779 273.919 243.469 274.133 244.347 274.376C245.448 274.675 246.344 274.973 247.035 275.272C247.725 275.552 248.313 275.981 248.799 276.56C249.303 277.139 249.564 277.895 249.583 278.828C249.583 279.668 249.349 280.424 248.883 281.096C248.416 281.768 247.753 282.3 246.895 282.692C246.055 283.065 245.084 283.252 243.983 283.252ZM255.727 270.512C256.25 269.597 257.015 268.851 258.023 268.272C259.031 267.693 260.179 267.404 261.467 267.404C262.849 267.404 264.09 267.731 265.191 268.384C266.293 269.037 267.161 269.961 267.795 271.156C268.43 272.332 268.747 273.704 268.747 275.272C268.747 276.821 268.43 278.203 267.795 279.416C267.161 280.629 266.283 281.572 265.163 282.244C264.062 282.916 262.83 283.252 261.467 283.252C260.142 283.252 258.975 282.963 257.967 282.384C256.978 281.805 256.231 281.068 255.727 280.172V283H253.179V262.28H255.727V270.512ZM266.143 275.272C266.143 274.115 265.91 273.107 265.443 272.248C264.977 271.389 264.342 270.736 263.539 270.288C262.755 269.84 261.887 269.616 260.935 269.616C260.002 269.616 259.134 269.849 258.331 270.316C257.547 270.764 256.913 271.427 256.427 272.304C255.961 273.163 255.727 274.161 255.727 275.3C255.727 276.457 255.961 277.475 256.427 278.352C256.913 279.211 257.547 279.873 258.331 280.34C259.134 280.788 260.002 281.012 260.935 281.012C261.887 281.012 262.755 280.788 263.539 280.34C264.342 279.873 264.977 279.211 265.443 278.352C265.91 277.475 266.143 276.448 266.143 275.272ZM273.417 265.164C272.932 265.164 272.521 264.996 272.185 264.66C271.849 264.324 271.681 263.913 271.681 263.428C271.681 262.943 271.849 262.532 272.185 262.196C272.521 261.86 272.932 261.692 273.417 261.692C273.884 261.692 274.276 261.86 274.593 262.196C274.929 262.532 275.097 262.943 275.097 263.428C275.097 263.913 274.929 264.324 274.593 264.66C274.276 264.996 273.884 265.164 273.417 265.164ZM274.649 267.656V283H272.101V267.656H274.649ZM281.54 262.28V283H278.992V262.28H281.54ZM287.199 265.164C286.713 265.164 286.303 264.996 285.967 264.66C285.631 264.324 285.463 263.913 285.463 263.428C285.463 262.943 285.631 262.532 285.967 262.196C286.303 261.86 286.713 261.692 287.199 261.692C287.665 261.692 288.057 261.86 288.375 262.196C288.711 262.532 288.879 262.943 288.879 263.428C288.879 263.913 288.711 264.324 288.375 264.66C288.057 264.996 287.665 265.164 287.199 265.164ZM288.431 267.656V283H285.883V267.656H288.431ZM295.881 269.756V278.8C295.881 279.547 296.04 280.079 296.357 280.396C296.675 280.695 297.225 280.844 298.009 280.844H299.885V283H297.589C296.171 283 295.107 282.673 294.397 282.02C293.688 281.367 293.333 280.293 293.333 278.8V269.756H291.345V267.656H293.333V263.792H295.881V267.656H299.885V269.756H295.881ZM302.02 275.272C302.02 273.704 302.338 272.332 302.972 271.156C303.607 269.961 304.475 269.037 305.576 268.384C306.696 267.731 307.938 267.404 309.3 267.404C310.644 267.404 311.811 267.693 312.8 268.272C313.79 268.851 314.527 269.579 315.012 270.456V267.656H317.588V283H315.012V280.144C314.508 281.04 313.752 281.787 312.744 282.384C311.755 282.963 310.598 283.252 309.272 283.252C307.91 283.252 306.678 282.916 305.576 282.244C304.475 281.572 303.607 280.629 302.972 279.416C302.338 278.203 302.02 276.821 302.02 275.272ZM315.012 275.3C315.012 274.143 314.779 273.135 314.312 272.276C313.846 271.417 313.211 270.764 312.408 270.316C311.624 269.849 310.756 269.616 309.804 269.616C308.852 269.616 307.984 269.84 307.2 270.288C306.416 270.736 305.791 271.389 305.324 272.248C304.858 273.107 304.624 274.115 304.624 275.272C304.624 276.448 304.858 277.475 305.324 278.352C305.791 279.211 306.416 279.873 307.2 280.34C307.984 280.788 308.852 281.012 309.804 281.012C310.756 281.012 311.624 280.788 312.408 280.34C313.211 279.873 313.846 279.211 314.312 278.352C314.779 277.475 315.012 276.457 315.012 275.3ZM327.326 283.252C326.15 283.252 325.096 283.056 324.162 282.664C323.229 282.253 322.492 281.693 321.95 280.984C321.409 280.256 321.11 279.425 321.054 278.492H323.686C323.761 279.257 324.116 279.883 324.75 280.368C325.404 280.853 326.253 281.096 327.298 281.096C328.269 281.096 329.034 280.881 329.594 280.452C330.154 280.023 330.434 279.481 330.434 278.828C330.434 278.156 330.136 277.661 329.538 277.344C328.941 277.008 328.017 276.681 326.766 276.364C325.628 276.065 324.694 275.767 323.966 275.468C323.257 275.151 322.641 274.693 322.118 274.096C321.614 273.48 321.362 272.677 321.362 271.688C321.362 270.904 321.596 270.185 322.062 269.532C322.529 268.879 323.192 268.365 324.05 267.992C324.909 267.6 325.889 267.404 326.99 267.404C328.689 267.404 330.061 267.833 331.106 268.692C332.152 269.551 332.712 270.727 332.786 272.22H330.238C330.182 271.417 329.856 270.773 329.258 270.288C328.68 269.803 327.896 269.56 326.906 269.56C325.992 269.56 325.264 269.756 324.722 270.148C324.181 270.54 323.91 271.053 323.91 271.688C323.91 272.192 324.069 272.612 324.386 272.948C324.722 273.265 325.133 273.527 325.618 273.732C326.122 273.919 326.813 274.133 327.69 274.376C328.792 274.675 329.688 274.973 330.378 275.272C331.069 275.552 331.657 275.981 332.142 276.56C332.646 277.139 332.908 277.895 332.926 278.828C332.926 279.668 332.693 280.424 332.226 281.096C331.76 281.768 331.097 282.3 330.238 282.692C329.398 283.065 328.428 283.252 327.326 283.252ZM350.064 263.484C352.192 263.484 354.031 263.885 355.58 264.688C357.148 265.472 358.343 266.601 359.164 268.076C360.004 269.551 360.424 271.287 360.424 273.284C360.424 275.281 360.004 277.017 359.164 278.492C358.343 279.948 357.148 281.068 355.58 281.852C354.031 282.617 352.192 283 350.064 283H343.988V263.484H350.064ZM350.064 280.9C352.584 280.9 354.507 280.237 355.832 278.912C357.157 277.568 357.82 275.692 357.82 273.284C357.82 270.857 357.148 268.963 355.804 267.6C354.479 266.237 352.565 265.556 350.064 265.556H346.536V280.9H350.064ZM365.101 265.164C364.616 265.164 364.205 264.996 363.869 264.66C363.533 264.324 363.365 263.913 363.365 263.428C363.365 262.943 363.533 262.532 363.869 262.196C364.205 261.86 364.616 261.692 365.101 261.692C365.568 261.692 365.96 261.86 366.277 262.196C366.613 262.532 366.781 262.943 366.781 263.428C366.781 263.913 366.613 264.324 366.277 264.66C365.96 264.996 365.568 265.164 365.101 265.164ZM366.333 267.656V283H363.785V267.656H366.333ZM376.108 283.252C374.932 283.252 373.877 283.056 372.944 282.664C372.01 282.253 371.273 281.693 370.732 280.984C370.19 280.256 369.892 279.425 369.836 278.492H372.468C372.542 279.257 372.897 279.883 373.532 280.368C374.185 280.853 375.034 281.096 376.08 281.096C377.05 281.096 377.816 280.881 378.376 280.452C378.936 280.023 379.216 279.481 379.216 278.828C379.216 278.156 378.917 277.661 378.32 277.344C377.722 277.008 376.798 276.681 375.548 276.364C374.409 276.065 373.476 275.767 372.748 275.468C372.038 275.151 371.422 274.693 370.9 274.096C370.396 273.48 370.144 272.677 370.144 271.688C370.144 270.904 370.377 270.185 370.844 269.532C371.31 268.879 371.973 268.365 372.832 267.992C373.69 267.6 374.67 267.404 375.772 267.404C377.47 267.404 378.842 267.833 379.888 268.692C380.933 269.551 381.493 270.727 381.568 272.22H379.02C378.964 271.417 378.637 270.773 378.04 270.288C377.461 269.803 376.677 269.56 375.688 269.56C374.773 269.56 374.045 269.756 373.504 270.148C372.962 270.54 372.692 271.053 372.692 271.688C372.692 272.192 372.85 272.612 373.168 272.948C373.504 273.265 373.914 273.527 374.4 273.732C374.904 273.919 375.594 274.133 376.472 274.376C377.573 274.675 378.469 274.973 379.16 275.272C379.85 275.552 380.438 275.981 380.924 276.56C381.428 277.139 381.689 277.895 381.708 278.828C381.708 279.668 381.474 280.424 381.008 281.096C380.541 281.768 379.878 282.3 379.02 282.692C378.18 283.065 377.209 283.252 376.108 283.252ZM384.352 275.272C384.352 273.704 384.67 272.332 385.304 271.156C385.939 269.961 386.807 269.037 387.908 268.384C389.028 267.731 390.27 267.404 391.632 267.404C392.976 267.404 394.143 267.693 395.132 268.272C396.122 268.851 396.859 269.579 397.344 270.456V267.656H399.92V283H397.344V280.144C396.84 281.04 396.084 281.787 395.076 282.384C394.087 282.963 392.93 283.252 391.604 283.252C390.242 283.252 389.01 282.916 387.908 282.244C386.807 281.572 385.939 280.629 385.304 279.416C384.67 278.203 384.352 276.821 384.352 275.272ZM397.344 275.3C397.344 274.143 397.111 273.135 396.644 272.276C396.178 271.417 395.543 270.764 394.74 270.316C393.956 269.849 393.088 269.616 392.136 269.616C391.184 269.616 390.316 269.84 389.532 270.288C388.748 270.736 388.123 271.389 387.656 272.248C387.19 273.107 386.956 274.115 386.956 275.272C386.956 276.448 387.19 277.475 387.656 278.352C388.123 279.211 388.748 279.873 389.532 280.34C390.316 280.788 391.184 281.012 392.136 281.012C393.088 281.012 393.956 280.788 394.74 280.34C395.543 279.873 396.178 279.211 396.644 278.352C397.111 277.475 397.344 276.457 397.344 275.3ZM406.774 270.512C407.297 269.597 408.062 268.851 409.07 268.272C410.078 267.693 411.226 267.404 412.514 267.404C413.896 267.404 415.137 267.731 416.238 268.384C417.34 269.037 418.208 269.961 418.842 271.156C419.477 272.332 419.794 273.704 419.794 275.272C419.794 276.821 419.477 278.203 418.842 279.416C418.208 280.629 417.33 281.572 416.21 282.244C415.109 282.916 413.877 283.252 412.514 283.252C411.189 283.252 410.022 282.963 409.014 282.384C408.025 281.805 407.278 281.068 406.774 280.172V283H404.226V262.28H406.774V270.512ZM417.19 275.272C417.19 274.115 416.957 273.107 416.49 272.248C416.024 271.389 415.389 270.736 414.586 270.288C413.802 269.84 412.934 269.616 411.982 269.616C411.049 269.616 410.181 269.849 409.378 270.316C408.594 270.764 407.96 271.427 407.474 272.304C407.008 273.163 406.774 274.161 406.774 275.3C406.774 276.457 407.008 277.475 407.474 278.352C407.96 279.211 408.594 279.873 409.378 280.34C410.181 280.788 411.049 281.012 411.982 281.012C412.934 281.012 413.802 280.788 414.586 280.34C415.389 279.873 416.024 279.211 416.49 278.352C416.957 277.475 417.19 276.448 417.19 275.272ZM424.464 265.164C423.979 265.164 423.568 264.996 423.232 264.66C422.896 264.324 422.728 263.913 422.728 263.428C422.728 262.943 422.896 262.532 423.232 262.196C423.568 261.86 423.979 261.692 424.464 261.692C424.931 261.692 425.323 261.86 425.64 262.196C425.976 262.532 426.144 262.943 426.144 263.428C426.144 263.913 425.976 264.324 425.64 264.66C425.323 264.996 424.931 265.164 424.464 265.164ZM425.696 267.656V283H423.148V267.656H425.696ZM432.587 262.28V283H430.039V262.28H432.587ZM438.245 265.164C437.76 265.164 437.349 264.996 437.013 264.66C436.677 264.324 436.509 263.913 436.509 263.428C436.509 262.943 436.677 262.532 437.013 262.196C437.349 261.86 437.76 261.692 438.245 261.692C438.712 261.692 439.104 261.86 439.421 262.196C439.757 262.532 439.925 262.943 439.925 263.428C439.925 263.913 439.757 264.324 439.421 264.66C439.104 264.996 438.712 265.164 438.245 265.164ZM439.477 267.656V283H436.929V267.656H439.477ZM446.928 269.756V278.8C446.928 279.547 447.087 280.079 447.404 280.396C447.721 280.695 448.272 280.844 449.056 280.844H450.932V283H448.636C447.217 283 446.153 282.673 445.444 282.02C444.735 281.367 444.38 280.293 444.38 278.8V269.756H442.392V267.656H444.38V263.792H446.928V267.656H450.932V269.756H446.928ZM453.067 275.272C453.067 273.704 453.385 272.332 454.019 271.156C454.654 269.961 455.522 269.037 456.623 268.384C457.743 267.731 458.985 267.404 460.347 267.404C461.691 267.404 462.858 267.693 463.847 268.272C464.837 268.851 465.574 269.579 466.059 270.456V267.656H468.635V283H466.059V280.144C465.555 281.04 464.799 281.787 463.791 282.384C462.802 282.963 461.645 283.252 460.319 283.252C458.957 283.252 457.725 282.916 456.623 282.244C455.522 281.572 454.654 280.629 454.019 279.416C453.385 278.203 453.067 276.821 453.067 275.272ZM466.059 275.3C466.059 274.143 465.826 273.135 465.359 272.276C464.893 271.417 464.258 270.764 463.455 270.316C462.671 269.849 461.803 269.616 460.851 269.616C459.899 269.616 459.031 269.84 458.247 270.288C457.463 270.736 456.838 271.389 456.371 272.248C455.905 273.107 455.671 274.115 455.671 275.272C455.671 276.448 455.905 277.475 456.371 278.352C456.838 279.211 457.463 279.873 458.247 280.34C459.031 280.788 459.899 281.012 460.851 281.012C461.803 281.012 462.671 280.788 463.455 280.34C464.258 279.873 464.893 279.211 465.359 278.352C465.826 277.475 466.059 276.457 466.059 275.3ZM478.373 283.252C477.197 283.252 476.142 283.056 475.209 282.664C474.276 282.253 473.538 281.693 472.997 280.984C472.456 280.256 472.157 279.425 472.101 278.492H474.733C474.808 279.257 475.162 279.883 475.797 280.368C476.45 280.853 477.3 281.096 478.345 281.096C479.316 281.096 480.081 280.881 480.641 280.452C481.201 280.023 481.481 279.481 481.481 278.828C481.481 278.156 481.182 277.661 480.585 277.344C479.988 277.008 479.064 276.681 477.813 276.364C476.674 276.065 475.741 275.767 475.013 275.468C474.304 275.151 473.688 274.693 473.165 274.096C472.661 273.48 472.409 272.677 472.409 271.688C472.409 270.904 472.642 270.185 473.109 269.532C473.576 268.879 474.238 268.365 475.097 267.992C475.956 267.6 476.936 267.404 478.037 267.404C479.736 267.404 481.108 267.833 482.153 268.692C483.198 269.551 483.758 270.727 483.833 272.22H481.285C481.229 271.417 480.902 270.773 480.305 270.288C479.726 269.803 478.942 269.56 477.953 269.56C477.038 269.56 476.31 269.756 475.769 270.148C475.228 270.54 474.957 271.053 474.957 271.688C474.957 272.192 475.116 272.612 475.433 272.948C475.769 273.265 476.18 273.527 476.665 273.732C477.169 273.919 477.86 274.133 478.737 274.376C479.838 274.675 480.734 274.973 481.425 275.272C482.116 275.552 482.704 275.981 483.189 276.56C483.693 277.139 483.954 277.895 483.973 278.828C483.973 279.668 483.74 280.424 483.273 281.096C482.806 281.768 482.144 282.3 481.285 282.692C480.445 283.065 479.474 283.252 478.373 283.252Z" fill="black"/>
<rect width="192" height="41" transform="translate(163 318)" fill="white"/>
<path d="M181.205 338L174.317 330.368V338H172.133V321.272H174.317V329.024L181.229 321.272H183.989L176.405 329.648L184.061 338H181.205ZM192.236 338.216C191.004 338.216 189.884 337.936 188.876 337.376C187.884 336.816 187.1 336.024 186.524 335C185.964 333.96 185.684 332.76 185.684 331.4C185.684 330.056 185.972 328.872 186.548 327.848C187.14 326.808 187.94 326.016 188.948 325.472C189.956 324.912 191.084 324.632 192.332 324.632C193.58 324.632 194.708 324.912 195.716 325.472C196.724 326.016 197.516 326.8 198.092 327.824C198.684 328.848 198.98 330.04 198.98 331.4C198.98 332.76 198.676 333.96 198.068 335C197.476 336.024 196.668 336.816 195.644 337.376C194.62 337.936 193.484 338.216 192.236 338.216ZM192.236 336.296C193.02 336.296 193.756 336.112 194.444 335.744C195.132 335.376 195.684 334.824 196.1 334.088C196.532 333.352 196.748 332.456 196.748 331.4C196.748 330.344 196.54 329.448 196.124 328.712C195.708 327.976 195.164 327.432 194.492 327.08C193.82 326.712 193.092 326.528 192.308 326.528C191.508 326.528 190.772 326.712 190.1 327.08C189.444 327.432 188.916 327.976 188.516 328.712C188.116 329.448 187.916 330.344 187.916 331.4C187.916 332.472 188.108 333.376 188.492 334.112C188.892 334.848 189.42 335.4 190.076 335.768C190.732 336.12 191.452 336.296 192.236 336.296ZM204.516 326.648V334.4C204.516 335.04 204.652 335.496 204.924 335.768C205.196 336.024 205.668 336.152 206.34 336.152H207.948V338H205.98C204.764 338 203.852 337.72 203.244 337.16C202.636 336.6 202.332 335.68 202.332 334.4V326.648H200.628V324.848H202.332V321.536H204.516V324.848H207.948V326.648H204.516ZM209.778 331.376C209.778 330.032 210.05 328.856 210.594 327.848C211.138 326.824 211.882 326.032 212.826 325.472C213.786 324.912 214.85 324.632 216.018 324.632C217.17 324.632 218.17 324.88 219.018 325.376C219.866 325.872 220.498 326.496 220.914 327.248V324.848H223.122V338H220.914V335.552C220.482 336.32 219.834 336.96 218.97 337.472C218.122 337.968 217.13 338.216 215.994 338.216C214.826 338.216 213.77 337.928 212.826 337.352C211.882 336.776 211.138 335.968 210.594 334.928C210.05 333.888 209.778 332.704 209.778 331.376ZM220.914 331.4C220.914 330.408 220.714 329.544 220.314 328.808C219.914 328.072 219.37 327.512 218.682 327.128C218.01 326.728 217.266 326.528 216.45 326.528C215.634 326.528 214.89 326.72 214.218 327.104C213.546 327.488 213.01 328.048 212.61 328.784C212.21 329.52 212.01 330.384 212.01 331.376C212.01 332.384 212.21 333.264 212.61 334.016C213.01 334.752 213.546 335.32 214.218 335.72C214.89 336.104 215.634 336.296 216.45 336.296C217.266 336.296 218.01 336.104 218.682 335.72C219.37 335.32 219.914 334.752 220.314 334.016C220.714 333.264 220.914 332.392 220.914 331.4ZM238.419 321.272C240.243 321.272 241.819 321.616 243.147 322.304C244.491 322.976 245.515 323.944 246.219 325.208C246.939 326.472 247.299 327.96 247.299 329.672C247.299 331.384 246.939 332.872 246.219 334.136C245.515 335.384 244.491 336.344 243.147 337.016C241.819 337.672 240.243 338 238.419 338H233.211V321.272H238.419ZM238.419 336.2C240.579 336.2 242.227 335.632 243.363 334.496C244.499 333.344 245.067 331.736 245.067 329.672C245.067 327.592 244.491 325.968 243.339 324.8C242.203 323.632 240.563 323.048 238.419 323.048H235.395V336.2H238.419ZM262.18 330.92C262.18 331.336 262.156 331.776 262.108 332.24H251.596C251.676 333.536 252.116 334.552 252.916 335.288C253.732 336.008 254.716 336.368 255.868 336.368C256.812 336.368 257.596 336.152 258.22 335.72C258.86 335.272 259.308 334.68 259.564 333.944H261.916C261.564 335.208 260.86 336.24 259.804 337.04C258.748 337.824 257.436 338.216 255.868 338.216C254.62 338.216 253.5 337.936 252.508 337.376C251.532 336.816 250.764 336.024 250.204 335C249.644 333.96 249.364 332.76 249.364 331.4C249.364 330.04 249.636 328.848 250.18 327.824C250.724 326.8 251.484 326.016 252.46 325.472C253.452 324.912 254.588 324.632 255.868 324.632C257.116 324.632 258.22 324.904 259.18 325.448C260.14 325.992 260.876 326.744 261.388 327.704C261.916 328.648 262.18 329.72 262.18 330.92ZM259.924 330.464C259.924 329.632 259.74 328.92 259.372 328.328C259.004 327.72 258.5 327.264 257.86 326.96C257.236 326.64 256.54 326.48 255.772 326.48C254.668 326.48 253.724 326.832 252.94 327.536C252.172 328.24 251.732 329.216 251.62 330.464H259.924ZM271.471 324.608C273.071 324.608 274.367 325.096 275.359 326.072C276.351 327.032 276.847 328.424 276.847 330.248V338H274.687V330.56C274.687 329.248 274.359 328.248 273.703 327.56C273.047 326.856 272.151 326.504 271.015 326.504C269.863 326.504 268.943 326.864 268.255 327.584C267.583 328.304 267.247 329.352 267.247 330.728V338H265.063V324.848H267.247V326.72C267.679 326.048 268.263 325.528 268.999 325.16C269.751 324.792 270.575 324.608 271.471 324.608ZM282.598 327.272C283.03 326.52 283.67 325.896 284.518 325.4C285.382 324.888 286.382 324.632 287.518 324.632C288.686 324.632 289.742 324.912 290.686 325.472C291.646 326.032 292.398 326.824 292.942 327.848C293.486 328.856 293.758 330.032 293.758 331.376C293.758 332.704 293.486 333.888 292.942 334.928C292.398 335.968 291.646 336.776 290.686 337.352C289.742 337.928 288.686 338.216 287.518 338.216C286.398 338.216 285.406 337.968 284.542 337.472C283.694 336.96 283.046 336.328 282.598 335.576V344.24H280.414V324.848H282.598V327.272ZM291.526 331.376C291.526 330.384 291.326 329.52 290.926 328.784C290.526 328.048 289.982 327.488 289.294 327.104C288.622 326.72 287.878 326.528 287.062 326.528C286.262 326.528 285.518 326.728 284.83 327.128C284.158 327.512 283.614 328.08 283.198 328.832C282.798 329.568 282.598 330.424 282.598 331.4C282.598 332.392 282.798 333.264 283.198 334.016C283.614 334.752 284.158 335.32 284.83 335.72C285.518 336.104 286.262 336.296 287.062 336.296C287.878 336.296 288.622 336.104 289.294 335.72C289.982 335.32 290.526 334.752 290.926 334.016C291.326 333.264 291.526 332.384 291.526 331.376ZM295.817 331.376C295.817 330.032 296.089 328.856 296.633 327.848C297.177 326.824 297.921 326.032 298.865 325.472C299.825 324.912 300.889 324.632 302.057 324.632C303.209 324.632 304.209 324.88 305.057 325.376C305.905 325.872 306.537 326.496 306.953 327.248V324.848H309.161V338H306.953V335.552C306.521 336.32 305.873 336.96 305.009 337.472C304.161 337.968 303.169 338.216 302.033 338.216C300.865 338.216 299.809 337.928 298.865 337.352C297.921 336.776 297.177 335.968 296.633 334.928C296.089 333.888 295.817 332.704 295.817 331.376ZM306.953 331.4C306.953 330.408 306.753 329.544 306.353 328.808C305.953 328.072 305.409 327.512 304.721 327.128C304.049 326.728 303.305 326.528 302.489 326.528C301.673 326.528 300.929 326.72 300.257 327.104C299.585 327.488 299.049 328.048 298.649 328.784C298.249 329.52 298.049 330.384 298.049 331.376C298.049 332.384 298.249 333.264 298.649 334.016C299.049 334.752 299.585 335.32 300.257 335.72C300.929 336.104 301.673 336.296 302.489 336.296C303.305 336.296 304.049 336.104 304.721 335.72C305.409 335.32 305.953 334.752 306.353 334.016C306.753 333.264 306.953 332.392 306.953 331.4ZM317.508 338.216C316.5 338.216 315.596 338.048 314.796 337.712C313.996 337.36 313.364 336.88 312.9 336.272C312.436 335.648 312.18 334.936 312.132 334.136H314.388C314.452 334.792 314.756 335.328 315.3 335.744C315.86 336.16 316.588 336.368 317.484 336.368C318.316 336.368 318.972 336.184 319.452 335.816C319.932 335.448 320.172 334.984 320.172 334.424C320.172 333.848 319.916 333.424 319.404 333.152C318.892 332.864 318.1 332.584 317.028 332.312C316.052 332.056 315.252 331.8 314.628 331.544C314.02 331.272 313.492 330.88 313.044 330.368C312.612 329.84 312.396 329.152 312.396 328.304C312.396 327.632 312.596 327.016 312.996 326.456C313.396 325.896 313.964 325.456 314.7 325.136C315.436 324.8 316.276 324.632 317.22 324.632C318.676 324.632 319.852 325 320.748 325.736C321.644 326.472 322.124 327.48 322.188 328.76H320.004C319.956 328.072 319.676 327.52 319.164 327.104C318.668 326.688 317.996 326.48 317.148 326.48C316.364 326.48 315.74 326.648 315.276 326.984C314.812 327.32 314.58 327.76 314.58 328.304C314.58 328.736 314.716 329.096 314.988 329.384C315.276 329.656 315.628 329.88 316.044 330.056C316.476 330.216 317.068 330.4 317.82 330.608C318.764 330.864 319.532 331.12 320.124 331.376C320.716 331.616 321.22 331.984 321.636 332.48C322.068 332.976 322.292 333.624 322.308 334.424C322.308 335.144 322.108 335.792 321.708 336.368C321.308 336.944 320.74 337.4 320.004 337.736C319.284 338.056 318.452 338.216 317.508 338.216ZM324.575 331.376C324.575 330.032 324.847 328.856 325.391 327.848C325.935 326.824 326.679 326.032 327.623 325.472C328.583 324.912 329.647 324.632 330.815 324.632C331.967 324.632 332.967 324.88 333.815 325.376C334.663 325.872 335.295 326.496 335.711 327.248V324.848H337.919V338H335.711V335.552C335.279 336.32 334.631 336.96 333.767 337.472C332.919 337.968 331.927 338.216 330.791 338.216C329.623 338.216 328.567 337.928 327.623 337.352C326.679 336.776 325.935 335.968 325.391 334.928C324.847 333.888 324.575 332.704 324.575 331.376ZM335.711 331.4C335.711 330.408 335.511 329.544 335.111 328.808C334.711 328.072 334.167 327.512 333.479 327.128C332.807 326.728 332.063 326.528 331.247 326.528C330.431 326.528 329.687 326.72 329.015 327.104C328.343 327.488 327.807 328.048 327.407 328.784C327.007 329.52 326.807 330.384 326.807 331.376C326.807 332.384 327.007 333.264 327.407 334.016C327.807 334.752 328.343 335.32 329.015 335.72C329.687 336.104 330.431 336.296 331.247 336.296C332.063 336.296 332.807 336.104 333.479 335.72C334.167 335.32 334.711 334.752 335.111 334.016C335.511 333.264 335.711 332.392 335.711 331.4ZM343.794 326.984C344.178 326.232 344.722 325.648 345.426 325.232C346.146 324.816 347.018 324.608 348.042 324.608V326.864H347.466C345.018 326.864 343.794 328.192 343.794 330.848V338H341.61V324.848H343.794V326.984Z" fill="black"/>
</svg>
