<svg width="24" height="24" viewBox="0 0 24 24" fill="none" xmlns="http://www.w3.org/2000/svg">
<path opacity="0.4" d="M21.2501 9.15004C20.7601 8.37004 20.2001 7.67004 19.6201 7.04004L15.8501 10.81C15.9701 11.18 16.0401 11.58 16.0401 12C16.0401 14.24 14.2301 16.04 12.0001 16.04C11.5801 16.04 11.1801 15.97 10.8101 15.85L7.3501 19.31C8.8101 20.13 10.3901 20.56 12.0001 20.56C13.7801 20.56 15.5101 20.04 17.0901 19.07C18.6701 18.09 20.0901 16.66 21.2501 14.84C22.2501 13.28 22.2501 10.72 21.2501 9.15004Z" fill="#292D32"/>
<path d="M14.0199 9.98001L9.97989 14.02C9.46989 13.5 9.13989 12.78 9.13989 12C9.13989 10.43 10.4199 9.14001 11.9999 9.14001C12.7799 9.14001 13.4999 9.47001 14.0199 9.98001Z" fill="#292D32"/>
<path opacity="0.4" d="M18.25 5.75005L14.86 9.14005C14.13 8.40005 13.12 7.96005 12 7.96005C9.76 7.96005 7.96 9.77005 7.96 12.0001C7.96 13.1201 8.41 14.1301 9.14 14.8601L5.76 18.2501H5.75C4.64 17.3501 3.62 16.2001 2.75 14.8401C1.75 13.2701 1.75 10.7201 2.75 9.15005C3.91 7.33005 5.33 5.90005 6.91 4.92005C8.49 3.96005 10.22 3.43005 12 3.43005C14.23 3.43005 16.39 4.25005 18.25 5.75005Z" fill="#292D32"/>
<path d="M14.8601 12C14.8601 13.57 13.5801 14.86 12.0001 14.86C11.9401 14.86 11.8901 14.86 11.8301 14.84L14.8401 11.83C14.8601 11.89 14.8601 11.94 14.8601 12Z" fill="#292D32"/>
<path d="M21.7699 2.23C21.4699 1.93 20.9799 1.93 20.6799 2.23L2.22988 20.69C1.92988 20.99 1.92988 21.48 2.22988 21.78C2.37988 21.92 2.56988 22 2.76988 22C2.96988 22 3.15988 21.92 3.30988 21.77L21.7699 3.31C22.0799 3.01 22.0799 2.53 21.7699 2.23Z" fill="#292D32"/>
</svg>
