<svg width="403" height="192" viewBox="0 0 403 192" fill="none" xmlns="http://www.w3.org/2000/svg">
<g clip-path="url(#clip0_17_29)">
<path d="M18.944 62.152C15.104 62.152 11.9467 61.0427 9.472 58.824C7.08267 56.52 5.888 53.704 5.888 50.376C5.888 46.9627 7.08267 44.1467 9.472 41.928C11.9467 39.624 15.104 38.472 18.944 38.472C22.6987 38.472 25.7707 39.624 28.16 41.928C30.6347 44.1467 31.872 46.9627 31.872 50.376C31.872 53.704 30.6347 56.52 28.16 58.824C25.7707 61.0427 22.6987 62.152 18.944 62.152ZM29.824 69.576V141H7.936V69.576H29.824ZM384.194 62.152C380.354 62.152 377.197 61.0427 374.722 58.824C372.333 56.52 371.138 53.704 371.138 50.376C371.138 46.9627 372.333 44.1467 374.722 41.928C377.197 39.624 380.354 38.472 384.194 38.472C387.949 38.472 391.021 39.624 393.41 41.928C395.885 44.1467 397.122 46.9627 397.122 50.376C397.122 53.704 395.885 56.52 393.41 58.824C391.021 61.0427 387.949 62.152 384.194 62.152ZM395.074 69.576V141H373.186V69.576H395.074Z" fill="#E5383B"/>
<path d="M82.934 69.32C88.4807 69.32 93.43 70.472 97.782 72.776C102.219 75.08 105.675 78.4933 108.15 83.016C110.625 87.5387 111.862 93 111.862 99.4V141H97.398V101.576C97.398 95.2613 95.8193 90.44 92.662 87.112C89.5047 83.6987 85.1953 81.992 79.734 81.992C74.2727 81.992 69.9207 83.6987 66.678 87.112C63.5207 90.44 61.942 95.2613 61.942 101.576V141H47.35V70.472H61.942V78.536C64.3313 75.6347 67.3607 73.3733 71.03 71.752C74.7847 70.1307 78.7527 69.32 82.934 69.32ZM125.611 105.416C125.611 98.3333 127.062 92.0613 129.963 86.6C132.95 81.1387 136.96 76.9147 141.995 73.928C147.115 70.856 152.747 69.32 158.891 69.32C164.438 69.32 169.259 70.4293 173.355 72.648C177.536 74.7813 180.864 77.4693 183.339 80.712V70.472H198.059V141H183.339V130.504C180.864 133.832 177.494 136.605 173.227 138.824C168.96 141.043 164.096 142.152 158.635 142.152C152.576 142.152 147.03 140.616 141.995 137.544C136.96 134.387 132.95 130.035 129.963 124.488C127.062 118.856 125.611 112.499 125.611 105.416ZM183.339 105.672C183.339 100.808 182.315 96.584 180.267 93C178.304 89.416 175.702 86.6853 172.459 84.808C169.216 82.9307 165.718 81.992 161.963 81.992C158.208 81.992 154.71 82.9307 151.467 84.808C148.224 86.6 145.579 89.288 143.531 92.872C141.568 96.3707 140.587 100.552 140.587 105.416C140.587 110.28 141.568 114.547 143.531 118.216C145.579 121.885 148.224 124.701 151.467 126.664C154.795 128.541 158.294 129.48 161.963 129.48C165.718 129.48 169.216 128.541 172.459 126.664C175.702 124.787 178.304 122.056 180.267 118.472C182.315 114.803 183.339 110.536 183.339 105.672ZM245.129 105.8L277.641 141H257.929L231.817 110.664V141H217.225V46.28H231.817V101.32L257.417 70.472H277.641L245.129 105.8ZM283.236 105.416C283.236 98.3333 284.687 92.0613 287.588 86.6C290.575 81.1387 294.585 76.9147 299.62 73.928C304.74 70.856 310.415 69.32 316.644 69.32C321.252 69.32 325.775 70.344 330.212 72.392C334.735 74.3547 338.319 77 340.964 80.328V46.28H355.684V141H340.964V130.376C338.575 133.789 335.247 136.605 330.98 138.824C326.799 141.043 321.977 142.152 316.516 142.152C310.372 142.152 304.74 140.616 299.62 137.544C294.585 134.387 290.575 130.035 287.588 124.488C284.687 118.856 283.236 112.499 283.236 105.416ZM340.964 105.672C340.964 100.808 339.94 96.584 337.892 93C335.929 89.416 333.327 86.6853 330.084 84.808C326.841 82.9307 323.343 81.992 319.588 81.992C315.833 81.992 312.335 82.9307 309.092 84.808C305.849 86.6 303.204 89.288 301.156 92.872C299.193 96.3707 298.212 100.552 298.212 105.416C298.212 110.28 299.193 114.547 301.156 118.216C303.204 121.885 305.849 124.701 309.092 126.664C312.42 128.541 315.919 129.48 319.588 129.48C323.343 129.48 326.841 128.541 330.084 126.664C333.327 124.787 335.929 122.056 337.892 118.472C339.94 114.803 340.964 110.536 340.964 105.672Z" fill="black"/>
</g>
<defs>
<clipPath id="clip0_17_29">
<rect width="403" height="192" fill="white"/>
</clipPath>
</defs>
</svg>
