<svg width="24" height="24" viewBox="0 0 24 24" fill="none" xmlns="http://www.w3.org/2000/svg">
<path d="M12 6.93994C9.93 6.93994 8.25 8.61994 8.25 10.6899C8.25 12.7199 9.84 14.3699 11.95 14.4299C11.98 14.4299 12.02 14.4299 12.04 14.4299C12.06 14.4299 12.09 14.4299 12.11 14.4299C12.12 14.4299 12.13 14.4299 12.13 14.4299C14.15 14.3599 15.74 12.7199 15.75 10.6899C15.75 8.61994 14.07 6.93994 12 6.93994Z" fill="#292D32"/>
<path d="M18.78 19.36C17 21 14.62 22.01 12 22.01C9.37997 22.01 6.99997 21 5.21997 19.36C5.45997 18.45 6.10997 17.62 7.05997 16.98C9.78997 15.16 14.23 15.16 16.94 16.98C17.9 17.62 18.54 18.45 18.78 19.36Z" fill="#292D32"/>
</svg>
