<svg width="24" height="24" viewBox="0 0 24 24" fill="none" xmlns="http://www.w3.org/2000/svg">
<path d="M6.74585 13.5922C7.54192 16.458 10.7262 18.2094 13.5921 17.4133C15.3434 16.7765 16.7763 15.3435 17.2541 13.5922" stroke="black" stroke-width="1.71" stroke-linecap="round" stroke-linejoin="round"/>
<path d="M8.41769 9.61174C8.19786 9.61174 8.01965 9.43354 8.01965 9.21371C8.01965 8.99388 8.19786 8.81567 8.41769 8.81567" stroke="black" stroke-width="1.71" stroke-linecap="round" stroke-linejoin="round"/>
<path d="M8.41772 9.61174C8.63755 9.61174 8.81576 9.43354 8.81576 9.21371C8.81576 8.99388 8.63755 8.81567 8.41772 8.81567" stroke="black" stroke-width="1.71" stroke-linecap="round" stroke-linejoin="round"/>
<path d="M15.5824 9.61174C15.3625 9.61174 15.1843 9.43354 15.1843 9.21371C15.1843 8.99388 15.3625 8.81567 15.5824 8.81567" stroke="black" stroke-width="1.71" stroke-linecap="round" stroke-linejoin="round"/>
<path d="M15.5824 9.61174C15.8022 9.61174 15.9804 9.43354 15.9804 9.21371C15.9804 8.99388 15.8022 8.81567 15.5824 8.81567" stroke="black" stroke-width="1.71" stroke-linecap="round" stroke-linejoin="round"/>
</svg>
