<svg width="24" height="24" viewBox="0 0 24 24" fill="none" xmlns="http://www.w3.org/2000/svg">
<path d="M21.98 11.41C21.64 5.60995 16.37 1.13996 10.3 2.13996C6.12004 2.82996 2.77005 6.21994 2.12005 10.3999C1.74005 12.8199 2.24007 15.1099 3.33007 16.9999L2.44006 20.3099C2.24006 21.0599 2.93004 21.7399 3.67004 21.5299L6.93005 20.63C8.41005 21.5 10.14 21.9999 11.99 21.9999C17.63 21.9999 22.31 17.03 21.98 11.41ZM16.8801 15.7199C16.7901 15.8999 16.68 16.07 16.54 16.23C16.29 16.5 16.02 16.7 15.72 16.82C15.42 16.95 15.09 17.01 14.74 17.01C14.23 17.01 13.68 16.89 13.11 16.64C12.53 16.39 11.9601 16.0599 11.3901 15.6499C10.8101 15.2299 10.2701 14.7599 9.75005 14.2499C9.23005 13.7299 8.77003 13.1799 8.35003 12.6099C7.94003 12.0399 7.61005 11.4699 7.37005 10.8999C7.13005 10.3299 7.01006 9.77996 7.01006 9.25996C7.01006 8.91996 7.07006 8.58996 7.19006 8.28996C7.31006 7.97996 7.50007 7.69996 7.77007 7.44996C8.09007 7.12996 8.44005 6.97996 8.81005 6.97996C8.95005 6.97996 9.09002 7.00995 9.22002 7.06995C9.35002 7.12995 9.47005 7.21995 9.56005 7.34995L10.72 8.98994C10.81 9.11994 10.88 9.22994 10.92 9.33994C10.97 9.44994 10.99 9.54994 10.99 9.64994C10.99 9.76994 10.9501 9.88996 10.8801 10.01C10.8101 10.13 10.72 10.2499 10.6 10.3699L10.22 10.7699C10.16 10.8299 10.1401 10.8899 10.1401 10.9699C10.1401 11.0099 10.15 11.0499 10.16 11.0899C10.18 11.1299 10.1901 11.16 10.2001 11.1899C10.2901 11.36 10.45 11.5699 10.67 11.8299C10.9 12.0899 11.1401 12.3599 11.4001 12.6199C11.6701 12.8899 11.9301 13.1299 12.2001 13.3599C12.4601 13.5799 12.68 13.73 12.85 13.82C12.88 13.83 12.9101 13.8499 12.9401 13.8599C12.9801 13.8799 13.0201 13.88 13.0701 13.88C13.1601 13.88 13.2201 13.85 13.2801 13.79L13.66 13.41C13.79 13.28 13.9101 13.19 14.0201 13.13C14.1401 13.06 14.2501 13.0199 14.3801 13.0199C14.4801 13.0199 14.5801 13.0399 14.6901 13.0899C14.8001 13.1399 14.92 13.2 15.04 13.29L16.7001 14.4699C16.8301 14.5599 16.92 14.67 16.98 14.79C17.03 14.92 17.0601 15.0399 17.0601 15.1799C17.0001 15.3499 16.9601 15.5399 16.8801 15.7199Z" fill="black"/>
</svg>
